{
  "accessors": [
    {
      "bufferView": 2,
      "componentType": 5126,
      "count": 96,
      "max": [
        1.0,
        14.188541412353516,
        0.15571025013923645
      ],
      "min": [
        -28.132234573364258,
        -14.152339935302734,
        0.0
      ],
      "type": "VEC3"
    },
    {
      "bufferView": 2,
      "byteOffset": 1152,
      "componentType": 5126,
      "count": 96,
      "max": [
        1.0,
        1.0,
        1.0
      ],
      "min": [
        -1.0,
        -1.0,
        -1.0
      ],
      "type": "VEC3"
    },
    {
      "bufferView": 1,
      "componentType": 5126,
      "count": 96,
      "max": [
        1.0,
        1.0
      ],
      "min": [
        0.0,
        0.0
      ],
      "type": "VEC2"
    },
    {
      "bufferView": 0,
      "componentType": 5125,
      "count": 144,
      "type": "SCALAR"
    },
    {
      "bufferView": 2,
      "byteOffset": 2304,
      "componentType": 5126,
      "count": 96,
      "max": [
        25.986709594726563,
        25.768613815307617,
        0.004022111184895039
      ],
      "min": [
        -374.4019775390625,
        -1.7885632514953613,
        -0.04919852688908577
      ],
      "type": "VEC3"
    },
    {
      "bufferView": 2,
      "byteOffset": 3456,
      "componentType": 5126,
      "count": 96,
      "max": [
        4.601333785103634e-05,
        0.05804050341248512,
        1.0
      ],
      "min": [
        -0.004001411143690348,
        -0.0006685451371595263,
        0.9983142614364624
      ],
      "type": "VEC3"
    },
    {
      "bufferView": 1,
      "byteOffset": 768,
      "componentType": 5126,
      "count": 96,
      "max": [
        1.0,
        1.0
      ],
      "min": [
        0.0,
        0.0
      ],
      "type": "VEC2"
    },
    {
      "bufferView": 0,
      "byteOffset": 576,
      "componentType": 5125,
      "count": 168,
      "type": "SCALAR"
    },
    {
      "bufferView": 2,
      "byteOffset": 4608,
      "componentType": 5126,
      "count": 350,
      "max": [
        1.0,
        1.0,
        0.012825576588511467
      ],
      "min": [
        -1.0,
        -1.0,
        0.0
      ],
      "type": "VEC3"
    },
    {
      "bufferView": 2,
      "byteOffset": 8808,
      "componentType": 5126,
      "count": 350,
      "max": [
        0.47591421008110046,
        0.450202077627182,
        1.0
      ],
      "min": [
        -0.48156413435935974,
        -0.4556577801704407,
        -1.0
      ],
      "type": "VEC3"
    },
    {
      "bufferView": 1,
      "byteOffset": 1536,
      "componentType": 5126,
      "count": 350,
      "max": [
        1.0,
        1.0
      ],
      "min": [
        0.0,
        0.0
      ],
      "type": "VEC2"
    },
    {
      "bufferView": 0,
      "byteOffset": 1248,
      "componentType": 5125,
      "count": 552,
      "type": "SCALAR"
    },
    {
      "bufferView": 2,
      "byteOffset": 13008,
      "componentType": 5126,
      "count": 144,
      "max": [
        0.9426133632659912,
        0.9416135549545288,
        0.0026618975680321455
      ],
      "min": [
        -0.9063881635665894,
        -0.9092535972595215,
        -0.0024193443823605776
      ],
      "type": "VEC3"
    },
    {
      "bufferView": 2,
      "byteOffset": 14736,
      "componentType": 5126,
      "count": 144,
      "max": [
        0.12623271346092224,
        0.12615083158016205,
        1.0
      ],
      "min": [
        -0.11039187014102936,
        -0.11024322360754013,
        0.9898636341094971
      ],
      "type": "VEC3"
    },
    {
      "bufferView": 1,
      "byteOffset": 4336,
      "componentType": 5126,
      "count": 144,
      "max": [
        0.0,
        0.0
      ],
      "min": [
        0.0,
        0.0
      ],
      "type": "VEC2"
    },
    {
      "bufferView": 0,
      "byteOffset": 3456,
      "componentType": 5125,
      "count": 288,
      "type": "SCALAR"
    }
  ],
  "asset": {
    "extras": {
      "author": "Tiko (https://sketchfab.com/tikoavp)",
      "license": "CC-BY-4.0 (http://creativecommons.org/licenses/by/4.0/)",
      "source": "https://sketchfab.com/3d-models/baseball-field-ba63c51e3a084871940c5ae6fe9113de",
      "title": "Baseball Field"
    },
    "generator": "Sketchfab-12.66.0",
    "version": "2.0"
  },
  "bufferViews": [
    {
      "buffer": 0,
      "byteLength": 4608,
      "name": "floatBufferViews",
      "target": 34963
    },
    {
      "buffer": 0,
      "byteLength": 5488,
      "byteOffset": 4608,
      "byteStride": 8,
      "name": "floatBufferViews",
      "target": 34962
    },
    {
      "buffer": 0,
      "byteLength": 16464,
      "byteOffset": 10096,
      "byteStride": 12,
      "name": "floatBufferViews",
      "target": 34962
    }
  ],
  "buffers": [
    {
      "byteLength": 26560,
      "uri": "scene.bin"
    }
  ],
  "materials": [
    {
      "doubleSided": true,
      "name": "White",
      "pbrMetallicRoughness": {
        "baseColorFactor": [
          0.8,
          0.8,
          0.8,
          1.0
        ],
        "metallicFactor": 0.0,
        "roughnessFactor": 0.8211145618000169
      }
    },
    {
      "doubleSided": true,
      "name": "Dirt",
      "pbrMetallicRoughness": {
        "baseColorFactor": [
          0.552011,
          0.264267,
          0.0984536,
          1.0
        ],
        "metallicFactor": 0.0
      }
    },
    {
      "doubleSided": true,
      "name": "Grass",
      "pbrMetallicRoughness": {
        "baseColorFactor": [
          0.101176,
          0.288296,
          0.0494828,
          1.0
        ],
        "metallicFactor": 0.0,
        "roughnessFactor": 0.9482860142698811
      }
    }
  ],
  "meshes": [
    {
      "name": "Bases_White_0",
      "primitives": [
        {
          "attributes": {
            "NORMAL": 1,
            "POSITION": 0,
            "TEXCOORD_0": 2
          },
          "indices": 3,
          "material": 0,
          "mode": 4
        }
      ]
    },
    {
      "name": "White Lines_White_0",
      "primitives": [
        {
          "attributes": {
            "NORMAL": 5,
            "POSITION": 4,
            "TEXCOORD_0": 6
          },
          "indices": 7,
          "material": 0,
          "mode": 4
        }
      ]
    },
    {
      "name": "Field_Dirt_0",
      "primitives": [
        {
          "attributes": {
            "NORMAL": 9,
            "POSITION": 8,
            "TEXCOORD_0": 10
          },
          "indices": 11,
          "material": 1,
          "mode": 4
        }
      ]
    },
    {
      "name": "Field_Grass_0",
      "primitives": [
        {
          "attributes": {
            "NORMAL": 13,
            "POSITION": 12,
            "TEXCOORD_0": 14
          },
          "indices": 15,
          "material": 2,
          "mode": 4
        }
      ]
    }
  ],
  "nodes": [
    {
      "children": [
        1
      ],
      "matrix": [
        -0.0028503851499408484,
        -7.098829606216601e-16,
        0.9999959468841553,
        0.0,
        0.9999959468841553,
        2.2106329704141098e-16,
        0.0028503851499408484,
        0.0,
        -2.2308582017544366e-16,
        1.0,
        7.0924996231226515e-16,
        0.0,
        -226.34031677246094,
        -4.940477805984263e-05,
        -227.37066650390625,
        1.0
      ],
      "name": "Sketchfab_model"
    },
    {
      "children": [
        2
      ],
      "matrix": [
        1.0,
        0.0,
        0.0,
        0.0,
        0.0,
        0.0,
        1.0,
        0.0,
        0.0,
        -1.0,
        0.0,
        0.0,
        0.0,
        0.0,
        0.0,
        1.0
      ],
      "name": "dcab1b87239e4848a8b7af9730f2558d.fbx"
    },
    {
      "children": [
        3,
        5,
        7
      ],
      "name": "RootNode"
    },
    {
      "children": [
        4
      ],
      "matrix": [
        5.627686464127694e-06,
        0.0,
        28.90333175659125,
        0.0,
        28.90333175659087,
        -4.7089504528892605e-06,
        -5.627686467336609e-06,
        0.0,
        4.7089501405382675e-06,
        28.903329849242784,
        -9.24167297864601e-13,
        0.0,
        0.0,
        0.0,
        737.74560546875,
        1.0
      ],
      "name": "Bases"
    },
    {
      "mesh": 0,
      "name": "Bases_White_0"
    },
    {
      "children": [
        6
      ],
      "matrix": [
        3.0089379650584593,
        4.724310910838691e-16,
        3.0089380965833232,
        0.0,
        43.718000359519394,
        -1.007282969627231e-05,
        -43.71799844854487,
        0.0,
        7.122565010432291e-06,
        61.826576232909346,
        -7.122564711842686e-06,
        0.0,
        0.0,
        3.2109107971191406,
        762.697998046875,
        1.0
      ],
      "name": "White Lines"
    },
    {
      "mesh": 1,
      "name": "White Lines_White_0"
    },
    {
      "children": [
        8,
        9
      ],
      "matrix": [
        739.9336276408468,
        -1.1617642340765871e-13,
        -739.9336599843749,
        0.0,
        -739.9336599843651,
        -0.00017048414113796646,
        -739.933627640837,
        0.0,
        -0.00012055050879775789,
        1046.4243164062364,
        -0.00012055050374408288,
        0.0,
        0.0,
        -2.7854743003845215,
        -226.4029998779297,
        1.0
      ],
      "name": "Field"
    },
    {
      "mesh": 2,
      "name": "Field_Dirt_0"
    },
    {
      "mesh": 3,
      "name": "Field_Grass_0"
    }
  ],
  "scene": 0,
  "scenes": [
    {
      "name": "Sketchfab_Scene",
      "nodes": [
        0
      ]
    }
  ]
}
