{
  "accessors": [
    {
      "bufferView": 2,
      "componentType": 5126,
      "count": 12418,
      "max": [
        70.89064025878906,
        70.62909698486328,
        141.35888671875
      ],
      "min": [
        -70.90499877929688,
        -71.23603057861328,
        0.015695737674832344
      ],
      "type": "VEC3"
    },
    {
      "bufferView": 2,
      "byteOffset": 149016,
      "componentType": 5126,
      "count": 12418,
      "max": [
        0.9998810887336731,
        0.9997307062149048,
        0.9997177720069885
      ],
      "min": [
        -0.9996981620788574,
        -0.9996949434280396,
        -0.999772310256958
      ],
      "type": "VEC3"
    },
    {
      "bufferView": 1,
      "componentType": 5126,
      "count": 12418,
      "max": [
        0.9941732287406921,
        0.9917720556259155
      ],
      "min": [
        0.0014827140839770436,
        0.34286224842071533
      ],
      "type": "VEC2"
    },
    {
      "bufferView": 0,
      "componentType": 5125,
      "count": 46464,
      "type": "SCALAR"
    },
    {
      "bufferView": 2,
      "byteOffset": 298032,
      "componentType": 5126,
      "count": 65532,
      "max": [
        28.254837036132813,
        56.03175354003906,
        71.39495849609375
      ],
      "min": [
        -68.32726287841797,
        -71.54967498779297,
        1.1312940120697021
      ],
      "type": "VEC3"
    },
    {
      "bufferView": 2,
      "byteOffset": 1084416,
      "componentType": 5126,
      "count": 65532,
      "max": [
        0.9999818801879883,
        0.9999410510063171,
        0.9999629259109497
      ],
      "min": [
        -0.9999762773513794,
        -0.9999246597290039,
        -0.9999746680259705
      ],
      "type": "VEC3"
    },
    {
      "bufferView": 1,
      "byteOffset": 99344,
      "componentType": 5126,
      "count": 65532,
      "max": [
        1.0,
        1.0
      ],
      "min": [
        0.0,
        0.0
      ],
      "type": "VEC2"
    },
    {
      "bufferView": 0,
      "byteOffset": 185856,
      "componentType": 5125,
      "count": 304743,
      "type": "SCALAR"
    },
    {
      "bufferView": 2,
      "byteOffset": 1870800,
      "componentType": 5126,
      "count": 65532,
      "max": [
        64.30413055419922,
        62.03093338012695,
        140.16513061523438
      ],
      "min": [
        -69.64013671875,
        -40.959686279296875,
        43.219825744628906
      ],
      "type": "VEC3"
    },
    {
      "bufferView": 2,
      "byteOffset": 2657184,
      "componentType": 5126,
      "count": 65532,
      "max": [
        0.9999562501907349,
        0.9999842643737793,
        0.9999485015869141
      ],
      "min": [
        -0.9999762773513794,
        -0.9999517202377319,
        -0.9999889135360718
      ],
      "type": "VEC3"
    },
    {
      "bufferView": 1,
      "byteOffset": 623600,
      "componentType": 5126,
      "count": 65532,
      "max": [
        1.0,
        1.0
      ],
      "min": [
        0.0,
        0.0
      ],
      "type": "VEC2"
    },
    {
      "bufferView": 0,
      "byteOffset": 1404828,
      "componentType": 5125,
      "count": 304275,
      "type": "SCALAR"
    },
    {
      "bufferView": 2,
      "byteOffset": 3443568,
      "componentType": 5126,
      "count": 65532,
      "max": [
        71.19898986816406,
        58.33313751220703,
        112.3503646850586
      ],
      "min": [
        -9.747543334960938,
        -71.42290496826172,
        22.02565574645996
      ],
      "type": "VEC3"
    },
    {
      "bufferView": 2,
      "byteOffset": 4229952,
      "componentType": 5126,
      "count": 65532,
      "max": [
        0.9999948740005493,
        0.9999333024024963,
        0.9998285174369812
      ],
      "min": [
        -0.9999947547912598,
        -0.999972403049469,
        -0.9998908638954163
      ],
      "type": "VEC3"
    },
    {
      "bufferView": 1,
      "byteOffset": 1147856,
      "componentType": 5126,
      "count": 65532,
      "max": [
        1.0,
        1.0
      ],
      "min": [
        0.0,
        0.0
      ],
      "type": "VEC2"
    },
    {
      "bufferView": 0,
      "byteOffset": 2621928,
      "componentType": 5125,
      "count": 315258,
      "type": "SCALAR"
    },
    {
      "bufferView": 2,
      "byteOffset": 5016336,
      "componentType": 5126,
      "count": 65532,
      "max": [
        51.711761474609375,
        66.61559295654297,
        126.20488739013672
      ],
      "min": [
        -15.047806739807129,
        -71.74559783935547,
        4.499403476715088
      ],
      "type": "VEC3"
    },
    {
      "bufferView": 2,
      "byteOffset": 5802720,
      "componentType": 5126,
      "count": 65532,
      "max": [
        0.9999889731407166,
        0.9999618530273438,
        0.9999988079071045
      ],
      "min": [
        -0.9999969601631165,
        -0.9999770522117615,
        -0.9999833703041077
      ],
      "type": "VEC3"
    },
    {
      "bufferView": 1,
      "byteOffset": 1672112,
      "componentType": 5126,
      "count": 65532,
      "max": [
        1.0,
        1.0
      ],
      "min": [
        0.0,
        0.0
      ],
      "type": "VEC2"
    },
    {
      "bufferView": 0,
      "byteOffset": 3882960,
      "componentType": 5125,
      "count": 327993,
      "type": "SCALAR"
    },
    {
      "bufferView": 2,
      "byteOffset": 6589104,
      "componentType": 5126,
      "count": 59125,
      "max": [
        -0.776881217956543,
        61.74541473388672,
        136.9267120361328
      ],
      "min": [
        -71.4336166381836,
        -31.751794815063477,
        24.83080291748047
      ],
      "type": "VEC3"
    },
    {
      "bufferView": 2,
      "byteOffset": 7298604,
      "componentType": 5126,
      "count": 59125,
      "max": [
        0.9999731183052063,
        0.9998803734779358,
        0.9999547600746155
      ],
      "min": [
        -0.9999984502792358,
        -0.9999805688858032,
        -0.9999946355819702
      ],
      "type": "VEC3"
    },
    {
      "bufferView": 1,
      "byteOffset": 2196368,
      "componentType": 5126,
      "count": 59125,
      "max": [
        1.0,
        1.0
      ],
      "min": [
        0.0,
        0.0
      ],
      "type": "VEC2"
    },
    {
      "bufferView": 0,
      "byteOffset": 5194932,
      "componentType": 5125,
      "count": 296019,
      "type": "SCALAR"
    }
  ],
  "asset": {
    "extras": {
      "author": "neutralize (https://sketchfab.com/neutralize)",
      "license": "CC-BY-4.0 (http://creativecommons.org/licenses/by/4.0/)",
      "source": "https://sketchfab.com/3d-models/baseball-4799dc6cb5f046bd88609381020feab1",
      "title": "BaseBall"
    },
    "generator": "Sketchfab-12.66.0",
    "version": "2.0"
  },
  "bufferViews": [
    {
      "buffer": 0,
      "byteLength": 6379008,
      "name": "floatBufferViews",
      "target": 34963
    },
    {
      "buffer": 0,
      "byteLength": 2669368,
      "byteOffset": 6379008,
      "byteStride": 8,
      "name": "floatBufferViews",
      "target": 34962
    },
    {
      "buffer": 0,
      "byteLength": 8008104,
      "byteOffset": 9048376,
      "byteStride": 12,
      "name": "floatBufferViews",
      "target": 34962
    }
  ],
  "buffers": [
    {
      "byteLength": 17056480,
      "uri": "scene.bin"
    }
  ],
  "materials": [
    {
      "doubleSided": true,
      "name": "White",
      "pbrMetallicRoughness": {
        "metallicFactor": 0.0
      }
    },
    {
      "doubleSided": true,
      "name": "seam",
      "pbrMetallicRoughness": {
        "baseColorFactor": [
          0.530612,
          0.0,
          0.0,
          1.0
        ],
        "metallicFactor": 0.0
      }
    }
  ],
  "meshes": [
    {
      "name": "Object_0",
      "primitives": [
        {
          "attributes": {
            "NORMAL": 1,
            "POSITION": 0,
            "TEXCOORD_0": 2
          },
          "indices": 3,
          "material": 0,
          "mode": 4
        }
      ]
    },
    {
      "name": "Object_1",
      "primitives": [
        {
          "attributes": {
            "NORMAL": 5,
            "POSITION": 4,
            "TEXCOORD_0": 6
          },
          "indices": 7,
          "material": 1,
          "mode": 4
        }
      ]
    },
    {
      "name": "Object_2",
      "primitives": [
        {
          "attributes": {
            "NORMAL": 9,
            "POSITION": 8,
            "TEXCOORD_0": 10
          },
          "indices": 11,
          "material": 1,
          "mode": 4
        }
      ]
    },
    {
      "name": "Object_3",
      "primitives": [
        {
          "attributes": {
            "NORMAL": 13,
            "POSITION": 12,
            "TEXCOORD_0": 14
          },
          "indices": 15,
          "material": 1,
          "mode": 4
        }
      ]
    },
    {
      "name": "Object_4",
      "primitives": [
        {
          "attributes": {
            "NORMAL": 17,
            "POSITION": 16,
            "TEXCOORD_0": 18
          },
          "indices": 19,
          "material": 1,
          "mode": 4
        }
      ]
    },
    {
      "name": "Object_5",
      "primitives": [
        {
          "attributes": {
            "NORMAL": 21,
            "POSITION": 20,
            "TEXCOORD_0": 22
          },
          "indices": 23,
          "material": 1,
          "mode": 4
        }
      ]
    }
  ],
  "nodes": [
    {
      "children": [
        1
      ],
      "matrix": [
        1.0,
        0.0,
        0.0,
        0.0,
        0.0,
        2.220446049250313e-16,
        -1.0,
        0.0,
        0.0,
        1.0,
        2.220446049250313e-16,
        0.0,
        0.0,
        0.0,
        0.0,
        1.0
      ],
      "name": "Sketchfab_model"
    },
    {
      "children": [
        2,
        3,
        4,
        5,
        6,
        7
      ],
      "name": "Baseball.obj.cleaner.materialmerger.gles"
    },
    {
      "mesh": 0,
      "name": "Object_2"
    },
    {
      "mesh": 1,
      "name": "Object_3"
    },
    {
      "mesh": 2,
      "name": "Object_4"
    },
    {
      "mesh": 3,
      "name": "Object_5"
    },
    {
      "mesh": 4,
      "name": "Object_6"
    },
    {
      "mesh": 5,
      "name": "Object_7"
    }
  ],
  "scene": 0,
  "scenes": [
    {
      "name": "Sketchfab_Scene",
      "nodes": [
        0
      ]
    }
  ]
}
